<?xml version="1.0" encoding="UTF-8"?>
<svg version="1.1" xmlns="http://www.w3.org/2000/svg" width="2000" height="2000">
<path d="M0 0 C660 0 1320 0 2000 0 C2000 660 2000 1320 2000 2000 C1340 2000 680 2000 0 2000 C0 1340 0 680 0 0 Z " fill="#FEFEFE" transform="translate(0,0)"/>
<path d="M0 0 C0.68249943 -0.00129787 1.36499886 -0.00259575 2.06818008 -0.00393295 C35.00793838 -0.05127969 67.19026029 2.22564214 99.4375 9.3125 C100.49420898 9.54195312 101.55091797 9.77140625 102.63964844 10.0078125 C144.700048 19.27255407 185.51519587 35.10808966 222.4375 57.3125 C223.18273926 57.7569043 223.92797852 58.20130859 224.69580078 58.65917969 C243.20404963 69.74793481 261.09489489 82.3924211 276.9609375 97.046875 C278.97783553 98.89198676 281.02447835 100.6766413 283.09765625 102.45703125 C288.11596644 106.83692429 292.8024578 111.53121797 297.5 116.25 C298.78874023 117.53293945 298.78874023 117.53293945 300.10351562 118.84179688 C305.08950428 123.83540354 309.88593809 128.91994166 314.4375 134.3125 C314.95368896 134.92198486 315.46987793 135.53146973 316.00170898 136.15942383 C324.38727748 146.15223735 332.12991783 156.50912852 339.4375 167.3125 C340.14519531 168.35857422 340.14519531 168.35857422 340.8671875 169.42578125 C347.56439777 179.39759433 353.60721218 189.64616782 359.30273438 200.21923828 C360.33537393 202.12411168 361.38908648 204.01489172 362.453125 205.90234375 C366.82853996 213.80832728 370.59694746 221.92291181 374.25 230.1875 C374.71849365 231.24590088 375.1869873 232.30430176 375.66967773 233.39477539 C378.24043735 239.29371321 380.50855171 245.17318949 382.4375 251.3125 C374.82920276 253.98928835 367.11291339 256.00509771 359.29223633 257.95776367 C357.88187259 258.31260271 356.47158097 258.66772852 355.06135559 259.02311707 C351.25667385 259.98087151 347.4508771 260.9341182 343.64475465 261.88612914 C341.2639801 262.48185778 338.88346005 263.07859247 336.50302696 263.67568398 C328.19113908 265.76057775 319.87835551 267.84185492 311.56469727 269.91967773 C303.82462263 271.85424491 296.08655615 273.7966977 288.34937841 275.7428152 C281.69309235 277.41669435 275.03545641 279.08512589 268.3767435 280.74932462 C264.40533174 281.74198654 260.43449634 282.73682269 256.46500587 283.73714256 C252.73598534 284.67666131 249.00532895 285.60937993 245.27331352 286.53692818 C243.90614671 286.87793616 242.53957642 287.22134627 241.17366791 287.56735992 C239.30584417 288.04011659 237.43559992 288.50327888 235.56526184 288.96598816 C234.52057645 289.22756808 233.47589106 289.48914801 232.39954853 289.75865459 C229.34456512 290.32987701 226.5380009 290.41220475 223.4375 290.3125 C223.1065332 289.71002441 222.77556641 289.10754883 222.43457031 288.48681641 C206.55374935 259.69258184 188.84841936 231.60381609 162.4375 211.3125 C160.85416667 210 159.27083333 208.6875 157.6875 207.375 C146.43820947 198.43234633 134.13363782 191.00050669 121.4375 184.3125 C120.80215332 183.97508789 120.16680664 183.63767578 119.51220703 183.29003906 C106.12079869 176.28866515 91.83130435 171.78507115 77.4375 167.3125 C76.68194824 167.07515137 75.92639648 166.83780273 75.14794922 166.59326172 C51.42994835 159.26638244 25.66403456 156.88860446 0.9375 157 C0.06898407 157.00215515 -0.79953186 157.0043103 -1.69436646 157.00653076 C-54.32723644 157.21489668 -104.60295127 172.49720538 -145.5625 206.3125 C-146.41835693 207.01608643 -146.41835693 207.01608643 -147.29150391 207.73388672 C-159.225005 217.60416456 -169.98457644 228.09354342 -179.5625 240.3125 C-180.35269531 241.28574219 -181.14289063 242.25898437 -181.95703125 243.26171875 C-199.44900437 265.216211 -212.2151278 290.95589616 -221.5625 317.3125 C-221.84818848 318.11574707 -222.13387695 318.91899414 -222.42822266 319.74658203 C-234.478723 354.25648387 -238.96225043 390.5816947 -238.82324219 426.98046875 C-238.8125078 430.31008092 -238.82322165 433.63915383 -238.8359375 436.96875 C-238.84746821 453.42246272 -238.46860709 469.94324019 -235.01325989 486.08517456 C-234.59304808 488.16155375 -234.28199136 490.21800503 -234.02734375 492.3203125 C-228.3836822 537.74152172 -208.45075753 583.97434849 -179.5625 619.3125 C-179.13646484 619.84004883 -178.71042969 620.36759766 -178.27148438 620.91113281 C-168.23711631 633.30171916 -157.24428872 644.60670437 -144.5625 654.3125 C-144.00336914 654.74272461 -143.44423828 655.17294922 -142.86816406 655.61621094 C-128.9900752 666.23773577 -114.35829895 674.86226295 -98.5625 682.3125 C-97.43457031 682.84746094 -96.30664062 683.38242188 -95.14453125 683.93359375 C-64.99966975 697.53942221 -32.48877386 701.68695183 0.25 701.75 C1.27523773 701.75599213 2.30047546 701.76198425 3.35678101 701.76815796 C58.64702009 701.98307151 114.92572001 686.19484876 158.4375 651.3125 C159.42234375 650.53132813 160.4071875 649.75015625 161.421875 648.9453125 C177.06646139 636.27373852 190.87693252 621.78434639 202.4375 605.3125 C202.95006348 604.58562988 203.46262695 603.85875977 203.99072266 603.10986328 C215.66214851 586.41917635 224.95338477 568.79721482 233.4375 550.3125 C241.72418319 550.71662303 249.52505342 552.36242261 257.53833008 554.40600586 C261.18102017 555.33383274 264.83074413 556.23312421 268.48046875 557.1328125 C269.2281955 557.31753113 269.97592224 557.50224976 270.74630737 557.69256592 C278.27987316 559.54173701 285.85256578 561.1896178 293.4375 562.8125 C305.00536937 565.29401092 316.50556499 567.98976751 327.99313354 570.81872559 C339.13902225 573.55972718 350.32040921 576.08432454 361.54052734 578.50222778 C371.22465134 580.58956267 380.86031286 582.77643564 390.4375 585.3125 C389.36964268 591.44797765 387.0116574 597.032928 384.75 602.8125 C384.51162415 603.42187408 384.27324829 604.03124817 384.02764893 604.65908813 C378.2833362 619.26101264 371.49417789 633.30696375 364.4375 647.3125 C364.01227051 648.16408691 363.58704102 649.01567383 363.14892578 649.89306641 C350.65997768 674.79107594 334.88254738 698.2263574 316.94628906 719.51123047 C315.55617746 721.17081678 314.19296431 722.84850628 312.8359375 724.53515625 C306.02137176 732.88022524 298.46676162 740.49497065 290.875 748.125 C290.34410767 748.66115936 289.81321533 749.19731873 289.26623535 749.74972534 C282.32423081 756.74490531 275.16477758 763.17669457 267.4375 769.3125 C266.15462199 770.38427739 264.87550659 771.46058747 263.6015625 772.54296875 C248.70390006 785.05559369 232.3391114 795.70494463 215.4375 805.3125 C214.60508789 805.79009766 213.77267578 806.26769531 212.91503906 806.75976562 C161.94542245 835.8180561 103.25480499 853.79542336 44.56103516 857.1105957 C42.39105836 857.2773137 42.39105836 857.2773137 40.11035156 857.79858398 C27.56946408 860.20985254 14.03897745 859.55276601 1.3125 859.5625 C-0.07680222 859.56401062 -0.07680222 859.56401062 -1.49417114 859.56555176 C-36.84607776 859.53989698 -72.49512659 856.51798407 -106.86279297 847.97460938 C-109.60172242 847.30288061 -112.34773936 846.67196539 -115.09765625 846.046875 C-140.5247014 840.1456807 -165.21134598 831.64794988 -188.84619141 820.57958984 C-191.37998597 819.39763822 -193.9263011 818.25037155 -196.48046875 817.11328125 C-223.19892984 805.066727 -248.81584882 788.76978267 -271.5625 770.3125 C-272.94695312 769.21421875 -272.94695312 769.21421875 -274.359375 768.09375 C-280.34281375 763.2934771 -286.02689485 758.22816069 -291.64453125 753.01171875 C-294.34062414 750.5177426 -297.06872684 748.06624381 -299.8125 745.625 C-306.18658169 739.89342574 -312.15828881 733.91805755 -317.73828125 727.41015625 C-318.9821954 725.97978816 -320.25184069 724.57149275 -321.54296875 723.18359375 C-328.18264386 716.03596535 -334.05392542 708.37317066 -339.88183594 700.5625 C-340.97391402 699.10047333 -342.07067003 697.64192511 -343.17285156 696.1875 C-381.96723493 644.93971322 -406.97298117 583.27072999 -418.5625 520.3125 C-418.68449768 519.6662265 -418.80649536 519.019953 -418.93218994 518.35409546 C-420.8620849 508.1159767 -422.33329083 497.88675285 -423.44287109 487.52807617 C-423.68788738 485.24639258 -423.9429344 482.96598947 -424.19921875 480.68554688 C-425.94885379 464.87552899 -426.77193165 449.15369476 -426.75 433.25 C-426.74939575 432.42890747 -426.7487915 431.60781494 -426.74816895 430.76184082 C-426.67980146 396.14288026 -424.16205773 360.92064662 -416.22021484 327.14599609 C-415.55666876 324.28737847 -414.94133206 321.42140467 -414.33203125 318.55078125 C-399.92550355 252.61634501 -367.53091032 190.28051814 -323.5625 139.3125 C-322.60537109 138.20261719 -322.60537109 138.20261719 -321.62890625 137.0703125 C-319.95129473 135.14086553 -318.2587232 133.22559192 -316.5625 131.3125 C-315.93601562 130.59320312 -315.30953125 129.87390625 -314.6640625 129.1328125 C-305.34387598 118.56531477 -295.38185619 108.35276511 -284.5625 99.3125 C-283.67175781 98.53261719 -282.78101563 97.75273438 -281.86328125 96.94921875 C-232.04756504 53.53826553 -169.71624908 24.7867966 -105.5625 10.3125 C-104.59908691 10.09110352 -103.63567383 9.86970703 -102.64306641 9.64160156 C-89.5389272 6.67339308 -76.39523315 4.63536167 -63.0625 3.0625 C-62.3640094 2.97941589 -61.6655188 2.89633179 -60.94586182 2.81072998 C-40.64541152 0.42944724 -20.42662521 0.03199185 0 0 Z " fill="#5F89ED" transform="translate(1340.5625,568.6875)"/>
<path d="M0 0 C61.05 0 122.1 0 185 0 C185.06039235 69.61472078 185.06039235 69.61472078 185.07695007 91.16738892 C185.07783807 92.32036731 185.07783807 92.32036731 185.07874402 93.4966382 C185.09863699 119.39581814 185.11438156 145.29499889 185.12702942 171.19418335 C185.12744359 172.04011338 185.12785776 172.8860434 185.12828448 173.75760767 C185.13726531 192.14638786 185.14557555 210.5351683 185.15319599 228.9239491 C185.15693767 237.94311456 185.16082738 246.96227995 185.16479492 255.98144531 C185.1651872 256.87891268 185.16557948 257.77638006 185.16598364 258.70104341 C185.17874476 287.73795053 185.20126147 316.77484001 185.22889166 345.81173647 C185.25725718 375.67596275 185.27567199 405.5401793 185.28174497 435.40441883 C185.28260931 439.63225678 185.28358621 443.86009469 185.28463173 448.08793259 C185.284834 448.91994964 185.28503627 449.75196669 185.28524467 450.60919637 C185.28877598 463.94825086 185.3026525 477.28727505 185.3204961 490.62631723 C185.33825443 504.0693319 185.34487996 517.51231682 185.34050413 530.95534278 C185.33843737 538.22574848 185.34109812 545.49607299 185.35761642 552.76646233 C185.53923581 636.01869747 185.53923581 636.01869747 172.64599609 675.01953125 C171.97818854 677.06686869 171.35611412 679.12457455 170.73828125 681.1875 C153.01136131 738.96268182 111.23579687 788.7152273 58 817 C29.76042086 831.57974878 0.73775652 841.5954626 -30.69384766 846.62988281 C-32.7087131 846.95325101 -34.71996613 847.29896793 -36.73046875 847.6484375 C-52.99133428 850.38168895 -69.41516431 850.21542745 -85.85595703 850.24023438 C-89.69977007 850.24987403 -93.54303198 850.28094992 -97.38671875 850.3125 C-122.19326289 850.41905553 -145.90038287 847.83434698 -170 842 C-171.45020361 841.66528923 -172.90070303 841.33185628 -174.3515625 841 C-234.13996078 827.0571077 -287.99110945 790.35390598 -320.94921875 738.3984375 C-335.48247112 715.01347428 -355 681.23345845 -355 653 C-336.64430711 648.45606622 -318.28687227 643.98410495 -299.79656982 640.01855469 C-288.12754651 637.51163594 -276.53118645 634.75213792 -264.93920898 631.91210938 C-263.57016595 631.57675672 -262.20110688 631.24146954 -260.83203125 630.90625 C-260.16463425 630.74282104 -259.49723724 630.57939209 -258.80961609 630.41101074 C-251.45986508 628.61606191 -244.08940627 626.91473197 -236.71386719 625.22949219 C-230.80486543 623.87923264 -224.90160815 622.50799648 -219.00390625 621.109375 C-216.96035872 620.62637952 -214.91675133 620.14363798 -212.87313843 619.66091919 C-210.93012476 619.20056072 -208.98811728 618.73596197 -207.04614258 618.27124023 C-201.0329971 616.85249025 -195.15291529 615.59074124 -189 615 C-188.82984375 615.52207031 -188.6596875 616.04414062 -188.484375 616.58203125 C-178.94158589 645.5657152 -165.19723886 670.24004398 -137.15283203 684.97021484 C-116.03566495 695.32602331 -87.66038521 698.42082635 -65.07324219 691.33691406 C-51.37086402 686.54400817 -38.94882948 679.71412405 -29 669 C-28.40703125 668.38898437 -27.8140625 667.77796875 -27.203125 667.1484375 C-3.61338142 642.00433097 -0.36325275 608.0964949 -0.48101807 575.17735291 C-0.47512628 572.67676696 -0.46749071 570.17618464 -0.458287 567.67560869 C-0.44238058 562.28942054 -0.43849347 556.90344318 -0.44580269 551.51724052 C-0.45660258 543.5085155 -0.44420963 535.49993688 -0.42743097 527.49122802 C-0.39983038 514.01214456 -0.39049343 500.53310814 -0.39188385 487.05399895 C-0.39319796 473.72487439 -0.38619913 460.39579598 -0.36830902 447.06668282 C-0.36719763 446.23520689 -0.36608624 445.40373097 -0.36494118 444.5470588 C-0.35925341 440.32371561 -0.35341915 436.10037264 -0.34752855 431.87702972 C-0.30616299 402.03106141 -0.28311749 372.18510465 -0.27099609 342.33911133 C-0.25918444 313.35993137 -0.23898099 284.38077691 -0.20751953 255.40161133 C-0.20655158 254.50697188 -0.20558363 253.61233243 -0.20458635 252.6905827 C-0.1948558 243.70552966 -0.18495576 234.72047682 -0.17493158 225.73542412 C-0.15451847 207.43490962 -0.13523601 189.13439399 -0.11663818 170.83387756 C-0.11578185 169.99261097 -0.11492553 169.15134438 -0.11404325 168.28458485 C-0.08787681 142.51996196 -0.06649857 116.75533821 -0.04986572 90.9907074 C-0.04939201 90.25980301 -0.04891829 89.52889863 -0.04843022 88.77584563 C-0.02932372 59.18389876 -0.01530043 29.59194903 0 0 Z " fill="#46B3D8" transform="translate(621,577)"/>
</svg>
